<?xml version="1.0" encoding="UTF-8" standalone="no"?>
<!DOCTYPE svg PUBLIC "-//W3C//DTD SVG 1.1//EN" "http://www.w3.org/Graphics/SVG/1.1/DTD/svg11.dtd">
<svg width="100%" height="100%" viewBox="0 0 5689 3334" version="1.1" xmlns="http://www.w3.org/2000/svg" xmlns:xlink="http://www.w3.org/1999/xlink" xml:space="preserve" xmlns:serif="http://www.serif.com/" style="fill-rule:evenodd;clip-rule:evenodd;stroke-linejoin:round;stroke-miterlimit:2;">
    <g transform="matrix(5.55556,0,0,5.55556,0,0)">
        <g>
            <g>
                <g transform="matrix(1,0,0,1,-87.1268,-93.0554)">
                    <ellipse cx="111.902" cy="132.044" rx="62.693" ry="61.436" style="fill:rgb(0,3,81);"/>
                </g>
                <g transform="matrix(1,0,0,1,157.586,-100.159)">
                    <ellipse cx="111.902" cy="132.044" rx="62.693" ry="61.436" style="fill:rgb(0,3,81);"/>
                </g>
                <g transform="matrix(1,0,0,1,57.0554,-100.159)">
                    <ellipse cx="111.902" cy="132.044" rx="62.693" ry="61.436" style="fill:rgb(218,181,0);"/>
                </g>
                <g transform="matrix(1,0,0,1,-35.8532,-48.4528)">
                    <ellipse cx="111.902" cy="132.044" rx="62.693" ry="61.436" style="fill:rgb(172,0,143);"/>
                </g>
                <g transform="matrix(-0.999974,-0.00716571,0.00716571,-0.999974,874.415,747.55)">
                    <ellipse cx="111.902" cy="132.044" rx="62.693" ry="61.436" style="fill:rgb(172,0,143);"/>
                </g>
                <g transform="matrix(-0.999999,0.00165258,-0.00165258,-0.999999,918.316,501.704)">
                    <ellipse cx="111.902" cy="132.044" rx="62.693" ry="61.436" style="fill:rgb(172,0,143);"/>
                </g>
                <g transform="matrix(-0.999999,0.00165258,-0.00165258,-0.999999,1060.34,490.657)">
                    <ellipse cx="111.902" cy="132.044" rx="62.693" ry="61.436" style="fill:rgb(172,0,143);"/>
                </g>
                <g transform="matrix(0.999985,0.00551316,-0.00551316,0.999985,-75.7874,190.57)">
                    <ellipse cx="111.902" cy="132.044" rx="62.693" ry="61.436" style="fill:rgb(172,0,143);"/>
                </g>
                <g transform="matrix(1,0,0,1,53.9391,99.4785)">
                    <ellipse cx="111.902" cy="132.044" rx="62.693" ry="61.436" style="fill:rgb(172,0,143);"/>
                </g>
                <g transform="matrix(-0.999974,-0.00716571,0.00716571,-0.999974,785.685,598.979)">
                    <ellipse cx="111.902" cy="132.044" rx="62.693" ry="61.436" style="fill:rgb(172,0,143);"/>
                </g>
                <g transform="matrix(-0.999974,-0.00716571,0.00716571,-0.999974,1146.3,350.804)">
                    <ellipse cx="111.902" cy="132.044" rx="62.693" ry="61.436" style="fill:rgb(172,0,143);"/>
                </g>
                <g transform="matrix(-0.999974,-0.00716571,0.00716571,-0.999974,952.498,593.817)">
                    <ellipse cx="111.902" cy="132.044" rx="62.693" ry="61.436" style="fill:rgb(172,0,143);"/>
                </g>
                <g transform="matrix(-0.999999,0.00165258,-0.00165258,-0.999999,828.279,353.921)">
                    <ellipse cx="111.902" cy="132.044" rx="62.693" ry="61.436" style="fill:rgb(172,0,143);"/>
                </g>
                <g transform="matrix(-0.999999,0.00165258,-0.00165258,-0.999999,989.082,324.775)">
                    <ellipse cx="111.902" cy="132.044" rx="62.693" ry="61.436" style="fill:rgb(172,0,143);"/>
                </g>
                <g transform="matrix(0.999985,0.00551316,-0.00551316,0.999985,13.1881,338.994)">
                    <ellipse cx="111.902" cy="132.044" rx="62.693" ry="61.436" style="fill:rgb(172,0,143);"/>
                </g>
                <g transform="matrix(1,0,0,1,153.39,-45.5425)">
                    <ellipse cx="111.902" cy="132.044" rx="62.693" ry="61.436" style="fill:rgb(172,0,143);"/>
                </g>
                <g transform="matrix(-0.999974,-0.00716571,0.00716571,-0.999974,685.198,743.284)">
                    <ellipse cx="111.902" cy="132.044" rx="62.693" ry="61.436" style="fill:rgb(172,0,143);"/>
                </g>
                <g transform="matrix(-0.999999,0.00165258,-0.00165258,-0.999999,729.068,499.107)">
                    <ellipse cx="111.902" cy="132.044" rx="62.693" ry="61.436" style="fill:rgb(172,0,143);"/>
                </g>
                <g transform="matrix(-0.999999,0.00165258,-0.00165258,-0.999999,889.871,469.961)">
                    <ellipse cx="111.902" cy="132.044" rx="62.693" ry="61.436" style="fill:rgb(172,0,143);"/>
                </g>
                <g transform="matrix(0.999985,0.00551316,-0.00551316,0.999985,113.437,194.524)">
                    <ellipse cx="111.902" cy="132.044" rx="62.693" ry="61.436" style="fill:rgb(172,0,143);"/>
                </g>
                <g transform="matrix(1,0,0,1,140.856,246.142)">
                    <ellipse cx="111.902" cy="132.044" rx="62.693" ry="61.436" style="fill:rgb(172,0,143);"/>
                </g>
                <g transform="matrix(-0.999974,-0.00716571,0.00716571,-0.999974,699.822,451.697)">
                    <ellipse cx="111.902" cy="132.044" rx="62.693" ry="61.436" style="fill:rgb(172,0,143);"/>
                </g>
                <g transform="matrix(-0.999999,0.00165258,-0.00165258,-0.999999,741.12,207.402)">
                    <ellipse cx="111.902" cy="132.044" rx="62.693" ry="61.436" style="fill:rgb(172,0,143);"/>
                </g>
                <g transform="matrix(-0.999999,0.00165258,-0.00165258,-0.999999,901.923,178.256)">
                    <ellipse cx="111.902" cy="132.044" rx="62.693" ry="61.436" style="fill:rgb(172,0,143);"/>
                </g>
                <g transform="matrix(0.999985,0.00551316,-0.00551316,0.999985,99.2946,486.135)">
                    <ellipse cx="111.902" cy="132.044" rx="62.693" ry="61.436" style="fill:rgb(172,0,143);"/>
                </g>
                <g transform="matrix(1,0,0,1,245.77,94.6167)">
                    <ellipse cx="111.902" cy="132.044" rx="62.693" ry="61.436" style="fill:rgb(172,0,143);"/>
                </g>
                <g transform="matrix(-0.999974,-0.00716571,0.00716571,-0.999974,593.824,602.466)">
                    <ellipse cx="111.902" cy="132.044" rx="62.693" ry="61.436" style="fill:rgb(172,0,143);"/>
                </g>
                <g transform="matrix(-0.999999,0.00165258,-0.00165258,-0.999999,628.221,358.519)">
                    <ellipse cx="111.902" cy="132.044" rx="62.693" ry="61.436" style="fill:rgb(172,0,143);"/>
                </g>
                <g transform="matrix(0.999985,0.00551316,-0.00551316,0.999985,205.043,335.19)">
                    <ellipse cx="111.902" cy="132.044" rx="62.693" ry="61.436" style="fill:rgb(172,0,143);"/>
                </g>
                <g transform="matrix(1,0,0,1,326.055,237.802)">
                    <ellipse cx="111.902" cy="132.044" rx="62.693" ry="61.436" style="fill:rgb(172,0,143);"/>
                </g>
                <g transform="matrix(-0.999974,-0.00716571,0.00716571,-0.999974,514.568,458.71)">
                    <ellipse cx="111.902" cy="132.044" rx="62.693" ry="61.436" style="fill:rgb(172,0,143);"/>
                </g>
                <g transform="matrix(-0.999999,0.00165258,-0.00165258,-0.999999,555.935,216.048)">
                    <ellipse cx="111.902" cy="132.044" rx="62.693" ry="61.436" style="fill:rgb(172,0,143);"/>
                </g>
                <g transform="matrix(0.999985,0.00551316,-0.00551316,0.999985,284.537,478.816)">
                    <ellipse cx="111.902" cy="132.044" rx="62.693" ry="61.436" style="fill:rgb(172,0,143);"/>
                </g>
                <g transform="matrix(1,0,0,1,-37.6893,34.4918)">
                    <ellipse cx="111.902" cy="132.044" rx="62.693" ry="61.436" style="fill:rgb(118,172,0);"/>
                </g>
                <g transform="matrix(-0.999974,-0.00716571,0.00716571,-0.999974,876.845,664.621)">
                    <ellipse cx="111.902" cy="132.044" rx="62.693" ry="61.436" style="fill:rgb(118,172,0);"/>
                </g>
                <g transform="matrix(-0.999974,-0.00716571,0.00716571,-0.999974,1037.65,635.475)">
                    <ellipse cx="111.902" cy="132.044" rx="62.693" ry="61.436" style="fill:rgb(118,172,0);"/>
                </g>
                <g transform="matrix(-0.999999,0.00165258,-0.00165258,-0.999999,920.015,418.757)">
                    <ellipse cx="111.902" cy="132.044" rx="62.693" ry="61.436" style="fill:rgb(118,172,0);"/>
                </g>
                <g transform="matrix(-0.999999,0.00165258,-0.00165258,-0.999999,1080.82,389.611)">
                    <ellipse cx="111.902" cy="132.044" rx="62.693" ry="61.436" style="fill:rgb(118,172,0);"/>
                </g>
                <g transform="matrix(0.999985,0.00551316,-0.00551316,0.999985,-78.0807,273.503)">
                    <ellipse cx="111.902" cy="132.044" rx="62.693" ry="61.436" style="fill:rgb(118,172,0);"/>
                </g>
                <g transform="matrix(1,0,0,1,52.103,182.423)">
                    <ellipse cx="111.902" cy="132.044" rx="62.693" ry="61.436" style="fill:rgb(118,172,0);"/>
                </g>
                <g transform="matrix(-0.999974,-0.00716571,0.00716571,-0.999974,788.115,516.05)">
                    <ellipse cx="111.902" cy="132.044" rx="62.693" ry="61.436" style="fill:rgb(118,172,0);"/>
                </g>
                <g transform="matrix(-0.999974,-0.00716571,0.00716571,-0.999974,1140.49,283.065)">
                    <ellipse cx="111.902" cy="132.044" rx="62.693" ry="61.436" style="fill:rgb(118,172,0);"/>
                </g>
                <g transform="matrix(-0.999999,0.00165258,-0.00165258,-0.999999,829.978,270.974)">
                    <ellipse cx="111.902" cy="132.044" rx="62.693" ry="61.436" style="fill:rgb(118,172,0);"/>
                </g>
                <g transform="matrix(-0.999999,0.00165258,-0.00165258,-0.999999,990.781,241.828)">
                    <ellipse cx="111.902" cy="132.044" rx="62.693" ry="61.436" style="fill:rgb(118,172,0);"/>
                </g>
                <g transform="matrix(0.999985,0.00551316,-0.00551316,0.999985,10.8947,421.928)">
                    <ellipse cx="111.902" cy="132.044" rx="62.693" ry="61.436" style="fill:rgb(118,172,0);"/>
                </g>
                <g transform="matrix(1,0,0,1,140.856,45.5582)">
                    <ellipse cx="111.902" cy="132.044" rx="62.693" ry="61.436" style="fill:rgb(118,172,0);"/>
                </g>
                <g transform="matrix(-0.999974,-0.00716571,0.00716571,-0.999974,698.384,652.275)">
                    <ellipse cx="111.902" cy="132.044" rx="62.693" ry="61.436" style="fill:rgb(118,172,0);"/>
                </g>
                <g transform="matrix(-0.999999,0.00165258,-0.00165258,-0.999999,741.452,407.985)">
                    <ellipse cx="111.902" cy="132.044" rx="62.693" ry="61.436" style="fill:rgb(118,172,0);"/>
                </g>
                <g transform="matrix(-0.999999,0.00165258,-0.00165258,-0.999999,902.254,378.839)">
                    <ellipse cx="111.902" cy="132.044" rx="62.693" ry="61.436" style="fill:rgb(118,172,0);"/>
                </g>
                <g transform="matrix(0.999985,0.00551316,-0.00551316,0.999985,100.4,285.554)">
                    <ellipse cx="111.902" cy="132.044" rx="62.693" ry="61.436" style="fill:rgb(118,172,0);"/>
                </g>
                <g transform="matrix(1,0,0,1,-99.4723,103.881)">
                    <ellipse cx="111.902" cy="132.044" rx="62.693" ry="61.436" style="fill:rgb(118,172,0);"/>
                </g>
                <g transform="matrix(-0.999974,-0.00716571,0.00716571,-0.999974,702.252,368.767)">
                    <ellipse cx="111.902" cy="132.044" rx="62.693" ry="61.436" style="fill:rgb(118,172,0);"/>
                </g>
                <g transform="matrix(-0.999999,0.00165258,-0.00165258,-0.999999,742.819,124.454)">
                    <ellipse cx="111.902" cy="132.044" rx="62.693" ry="61.436" style="fill:rgb(118,172,0);"/>
                </g>
                <g transform="matrix(1,0,0,1,230.545,182.423)">
                    <ellipse cx="111.902" cy="132.044" rx="62.693" ry="61.436" style="fill:rgb(118,172,0);"/>
                </g>
                <g transform="matrix(-0.999974,-0.00716571,0.00716571,-0.999974,1037.65,548.422)">
                    <ellipse cx="111.902" cy="132.044" rx="62.693" ry="61.436" style="fill:rgb(118,172,0);"/>
                </g>
                <g transform="matrix(-0.999999,0.00165258,-0.00165258,-0.999999,651.537,271.269)">
                    <ellipse cx="111.902" cy="132.044" rx="62.693" ry="61.436" style="fill:rgb(118,172,0);"/>
                </g>
                <g transform="matrix(0.999985,0.00551316,-0.00551316,0.999985,191.663,426.589)">
                    <ellipse cx="111.902" cy="132.044" rx="62.693" ry="61.436" style="fill:rgb(118,172,0);"/>
                </g>
                <g transform="matrix(1,0,0,1,405.119,276.862)">
                    <ellipse cx="111.902" cy="132.044" rx="62.693" ry="61.436" style="fill:rgb(118,172,0);"/>
                </g>
                <g transform="matrix(-0.999974,-0.00716571,0.00716571,-0.999974,516.998,375.781)">
                    <ellipse cx="111.902" cy="132.044" rx="62.693" ry="61.436" style="fill:rgb(118,172,0);"/>
                </g>
                <g transform="matrix(-0.999999,0.00165258,-0.00165258,-0.999999,557.634,133.101)">
                    <ellipse cx="111.902" cy="132.044" rx="62.693" ry="61.436" style="fill:rgb(118,172,0);"/>
                </g>
                <g transform="matrix(1,0,0,1,53.9391,-3.26308)">
                    <ellipse cx="111.902" cy="132.044" rx="62.693" ry="61.436" style="fill:rgb(0,108,135);"/>
                </g>
                <g transform="matrix(-0.999974,-0.00716571,0.00716571,-0.999974,784.97,698.768)">
                    <ellipse cx="111.902" cy="132.044" rx="62.693" ry="61.436" style="fill:rgb(0,108,135);"/>
                </g>
                <g transform="matrix(-0.999974,-0.00716571,0.00716571,-0.999974,973.91,652.275)">
                    <ellipse cx="111.902" cy="132.044" rx="62.693" ry="61.436" style="fill:rgb(0,108,135);"/>
                </g>
                <g transform="matrix(-0.999999,0.00165258,-0.00165258,-0.999999,828.444,453.712)">
                    <ellipse cx="111.902" cy="132.044" rx="62.693" ry="61.436" style="fill:rgb(0,108,135);"/>
                </g>
                <g transform="matrix(-0.999999,0.00165258,-0.00165258,-0.999999,989.247,424.566)">
                    <ellipse cx="111.902" cy="132.044" rx="62.693" ry="61.436" style="fill:rgb(0,108,135);"/>
                </g>
                <g transform="matrix(0.999985,0.00551316,-0.00551316,0.999985,13.7382,239.205)">
                    <ellipse cx="111.902" cy="132.044" rx="62.693" ry="61.436" style="fill:rgb(0,108,135);"/>
                </g>
                <g transform="matrix(1,0,0,1,151.144,141.052)">
                    <ellipse cx="111.902" cy="132.044" rx="62.693" ry="61.436" style="fill:rgb(0,108,135);"/>
                </g>
                <g transform="matrix(-0.999974,-0.00716571,0.00716571,-0.999974,688.78,556.71)">
                    <ellipse cx="111.902" cy="132.044" rx="62.693" ry="61.436" style="fill:rgb(0,108,135);"/>
                </g>
                <g transform="matrix(-0.999999,0.00165258,-0.00165258,-0.999999,731.005,312.508)">
                    <ellipse cx="111.902" cy="132.044" rx="62.693" ry="61.436" style="fill:rgb(0,108,135);"/>
                </g>
                <g transform="matrix(-0.999999,0.00165258,-0.00165258,-0.999999,891.808,283.362)">
                    <ellipse cx="111.902" cy="132.044" rx="62.693" ry="61.436" style="fill:rgb(0,108,135);"/>
                </g>
                <g transform="matrix(0.999985,0.00551316,-0.00551316,0.999985,110.163,381.103)">
                    <ellipse cx="111.902" cy="132.044" rx="62.693" ry="61.436" style="fill:rgb(0,108,135);"/>
                </g>
                <g transform="matrix(1,0,0,1,238.061,5.04606)">
                    <ellipse cx="111.902" cy="132.044" rx="62.693" ry="61.436" style="fill:rgb(0,108,135);"/>
                </g>
                <g transform="matrix(-0.999974,-0.00716571,0.00716571,-0.999974,600.891,692.09)">
                    <ellipse cx="111.902" cy="132.044" rx="62.693" ry="61.436" style="fill:rgb(0,108,135);"/>
                </g>
                <g transform="matrix(-0.999999,0.00165258,-0.00165258,-0.999999,636.456,435.381)">
                    <ellipse cx="111.902" cy="132.044" rx="62.693" ry="61.436" style="fill:rgb(0,108,135);"/>
                </g>
                <g transform="matrix(0.999985,0.00551316,-0.00551316,0.999985,197.828,245.578)">
                    <ellipse cx="111.902" cy="132.044" rx="62.693" ry="61.436" style="fill:rgb(0,108,135);"/>
                </g>
                <g transform="matrix(1,0,0,1,238.061,287.716)">
                    <ellipse cx="111.902" cy="132.044" rx="62.693" ry="61.436" style="fill:rgb(0,3,81);"/>
                </g>
                <g transform="matrix(-0.999974,-0.00716571,0.00716571,-0.999974,954.197,725.339)">
                    <ellipse cx="111.902" cy="132.044" rx="62.693" ry="61.436" style="fill:rgb(0,3,81);"/>
                </g>
                <g transform="matrix(-0.999974,-0.00716571,0.00716571,-0.999974,1115,696.193)">
                    <ellipse cx="111.902" cy="132.044" rx="62.693" ry="61.436" style="fill:rgb(0,3,81);"/>
                </g>
                <g transform="matrix(-0.999999,0.00165258,-0.00165258,-0.999999,643.847,165.989)">
                    <ellipse cx="111.902" cy="132.044" rx="62.693" ry="61.436" style="fill:rgb(0,3,81);"/>
                </g>
                <g transform="matrix(1,0,0,1,-23.1038,126.926)">
                    <ellipse cx="111.902" cy="132.044" rx="62.693" ry="61.436" style="fill:rgb(0,3,81);"/>
                </g>
                <g transform="matrix(-0.999974,-0.00716571,0.00716571,-0.999974,867.039,578.944)">
                    <ellipse cx="111.902" cy="132.044" rx="62.693" ry="61.436" style="fill:rgb(0,3,81);"/>
                </g>
                <g transform="matrix(-0.999974,-0.00716571,0.00716571,-0.999974,1140.49,593.817)">
                    <ellipse cx="111.902" cy="132.044" rx="62.693" ry="61.436" style="fill:rgb(0,3,81);"/>
                </g>
                <g transform="matrix(-0.999999,0.00165258,-0.00165258,-0.999999,905.277,326.347)">
                    <ellipse cx="111.902" cy="132.044" rx="62.693" ry="61.436" style="fill:rgb(0,3,81);"/>
                </g>
                <g transform="matrix(-0.999999,0.00165258,-0.00165258,-0.999999,1066.08,297.201)">
                    <ellipse cx="111.902" cy="132.044" rx="62.693" ry="61.436" style="fill:rgb(0,3,81);"/>
                </g>
                <g transform="matrix(0.999985,0.00551316,-0.00551316,0.999985,-64.005,366.017)">
                    <ellipse cx="111.902" cy="132.044" rx="62.693" ry="61.436" style="fill:rgb(0,3,81);"/>
                </g>
                <g transform="matrix(1,0,0,1,337.405,22.7135)">
                    <ellipse cx="111.902" cy="132.044" rx="62.693" ry="61.436" style="fill:rgb(0,3,81);"/>
                </g>
                <g transform="matrix(-0.999974,-0.00716571,0.00716571,-0.999974,533.667,637.583)">
                    <ellipse cx="111.902" cy="132.044" rx="62.693" ry="61.436" style="fill:rgb(0,3,81);"/>
                </g>
                <g transform="matrix(-0.999999,0.00165258,-0.00165258,-0.999999,1091.51,176.574)">
                    <ellipse cx="111.902" cy="132.044" rx="62.693" ry="61.436" style="fill:rgb(0,3,81);"/>
                </g>
                <g transform="matrix(-0.999999,0.00165258,-0.00165258,-0.999999,1156.61,453.712)">
                    <ellipse cx="111.902" cy="132.044" rx="62.693" ry="61.436" style="fill:rgb(0,3,81);"/>
                </g>
                <g transform="matrix(0.999985,0.00551316,-0.00551316,0.999985,265.142,299.974)">
                    <ellipse cx="111.902" cy="132.044" rx="62.693" ry="61.436" style="fill:rgb(0,3,81);"/>
                </g>
                <g transform="matrix(1,0,0,1,825.577,-32.8538)">
                    <ellipse cx="111.902" cy="132.044" rx="62.693" ry="61.436" style="fill:rgb(0,108,135);"/>
                </g>
                <g transform="matrix(-0.999974,-0.00716571,0.00716571,-0.999974,502.587,546.595)">
                    <ellipse cx="111.902" cy="132.044" rx="62.693" ry="61.436" style="fill:rgb(0,108,135);"/>
                </g>
                <g transform="matrix(-0.999999,0.00165258,-0.00165258,-0.999999,208.068,108.66)">
                    <ellipse cx="111.902" cy="132.044" rx="62.693" ry="61.436" style="fill:rgb(0,108,135);"/>
                </g>
                <g transform="matrix(0.999985,0.00551316,-0.00551316,0.999985,296.372,390.911)">
                    <ellipse cx="111.902" cy="132.044" rx="62.693" ry="61.436" style="fill:rgb(0,108,135);"/>
                </g>
                <g transform="matrix(1,0,0,1,379.661,154.854)">
                    <ellipse cx="111.902" cy="132.044" rx="62.693" ry="61.436" style="fill:rgb(218,181,0);"/>
                </g>
                <g transform="matrix(-0.999974,-0.00716571,0.00716571,-0.999974,459.201,407.219)">
                    <ellipse cx="111.902" cy="132.044" rx="62.693" ry="61.436" style="fill:rgb(218,181,0);"/>
                </g>
                <g transform="matrix(-0.999999,0.00165258,-0.00165258,-0.999999,477.725,176.574)">
                    <ellipse cx="111.902" cy="132.044" rx="62.693" ry="61.436" style="fill:rgb(218,181,0);"/>
                </g>
                <g transform="matrix(0.999985,0.00551316,-0.00551316,0.999985,815.523,486.135)">
                    <ellipse cx="111.902" cy="132.044" rx="62.693" ry="61.436" style="fill:rgb(218,181,0);"/>
                </g>
                <g transform="matrix(0.999985,0.00551316,-0.00551316,0.999985,747.648,258.15)">
                    <ellipse cx="111.902" cy="132.044" rx="62.693" ry="61.436" style="fill:rgb(218,181,0);"/>
                </g>
                <g transform="matrix(0.999985,0.00551316,-0.00551316,0.999985,912.357,257.891)">
                    <ellipse cx="111.902" cy="132.044" rx="62.693" ry="61.436" style="fill:rgb(218,181,0);"/>
                </g>
                <g transform="matrix(1,0,0,1,53.5051,272.918)">
                    <ellipse cx="111.902" cy="132.044" rx="62.693" ry="61.436" style="fill:rgb(218,181,0);"/>
                </g>
                <g transform="matrix(-0.999974,-0.00716571,0.00716571,-0.999974,135.727,256.957)">
                    <ellipse cx="111.902" cy="132.044" rx="62.693" ry="61.436" style="fill:rgb(218,181,0);"/>
                </g>
                <g transform="matrix(-0.999999,0.00165258,-0.00165258,-0.999999,828.427,180.481)">
                    <ellipse cx="111.902" cy="132.044" rx="62.693" ry="61.436" style="fill:rgb(218,181,0);"/>
                </g>
                <g transform="matrix(-0.999999,0.00165258,-0.00165258,-0.999999,989.229,151.335)">
                    <ellipse cx="111.902" cy="132.044" rx="62.693" ry="61.436" style="fill:rgb(218,181,0);"/>
                </g>
                <g transform="matrix(0.999985,0.00551316,-0.00551316,0.999985,-71.1516,458.063)">
                    <ellipse cx="111.902" cy="132.044" rx="62.693" ry="61.436" style="fill:rgb(218,181,0);"/>
                </g>
            </g>
        </g>
        <rect x="-80.216" y="-26.33" width="1164.85" height="670.194" style="fill:rgb(81,0,60);fill-opacity:0.5;"/>
    </g>
</svg>
